<?xml version="1.0" encoding="utf-8"?>
<!-- Generator: Adobe Illustrator 22.1.0, SVG Export Plug-In . SVG Version: 6.00 Build 0)  -->
<svg version="1.1" id="Layer_1" xmlns="http://www.w3.org/2000/svg" xmlns:xlink="http://www.w3.org/1999/xlink" x="0px" y="0px"
	 viewBox="0 0 24 24" style="enable-background:new 0 0 24 24;" xml:space="preserve">
<style type="text/css">
	.st0{fill:#FFFFFF;}
</style>
<path class="st0" d="M11.9,0.2c-0.5,0.1-0.9,0.5-0.9,1v2c0,0.6,0.4,1,1,1c0.6,0,1-0.4,1-1c0,0,0,0,0,0v-2c0-0.6-0.4-1-1-1
	C12,0.2,11.9,0.2,11.9,0.2z M4,3.4C3.5,3.5,3.1,4,3.2,4.5c0,0.2,0.1,0.4,0.3,0.6l1.4,1.4c0.3,0.4,1,0.5,1.4,0.2s0.5-1,0.2-1.4
	c0-0.1-0.1-0.1-0.2-0.2L4.9,3.7C4.7,3.5,4.5,3.4,4.2,3.4C4.2,3.4,4.1,3.4,4,3.4C4.1,3.4,4,3.4,4,3.4z M19.7,3.4
	c-0.2,0-0.4,0.1-0.6,0.3l-1.4,1.4c-0.4,0.3-0.5,1-0.2,1.4s1,0.5,1.4,0.2c0.1,0,0.1-0.1,0.2-0.2l1.4-1.4c0.4-0.4,0.4-1,0-1.4
	C20.3,3.5,20.1,3.4,19.7,3.4C19.8,3.4,19.7,3.4,19.7,3.4z M12,5.2c-3.8,0-7,3.2-7,7s3.2,7,7,7s7-3.2,7-7S15.8,5.2,12,5.2z M12,7.2
	c2.8,0,5,2.2,5,5s-2.2,5-5,5s-5-2.2-5-5S9.2,7.2,12,7.2z M0.8,11.2c-0.6,0.1-1,0.5-0.9,1.1s0.5,1,1.1,0.9h2c0.6,0,1-0.4,1-1
	c0-0.6-0.4-1-1-1c0,0,0,0,0,0H1C1,11.2,0.9,11.2,0.8,11.2C0.9,11.2,0.8,11.2,0.8,11.2z M20.8,11.2c-0.6,0.1-1,0.5-0.9,1.1
	s0.5,1,1.1,0.9h2c0.6,0,1-0.4,1-1c0-0.6-0.4-1-1-1c0,0,0,0,0,0h-2C21,11.2,20.9,11.2,20.8,11.2C20.9,11.2,20.8,11.2,20.8,11.2z
	 M5.5,17.6c-0.2,0-0.4,0.1-0.6,0.3l-1.4,1.4c-0.4,0.4-0.4,1,0,1.4s1,0.4,1.4,0l1.4-1.4c0.4-0.4,0.4-1,0.1-1.4
	C6.1,17.7,5.8,17.5,5.5,17.6z M18.2,17.6c-0.5,0.1-0.9,0.6-0.8,1.2c0,0.2,0.1,0.4,0.3,0.6l1.4,1.4c0.4,0.4,1,0.4,1.4,0s0.4-1,0-1.4
	l-1.4-1.4C18.9,17.7,18.6,17.6,18.2,17.6C18.3,17.6,18.2,17.6,18.2,17.6z M11.9,20.2c-0.5,0.1-0.9,0.5-0.9,1v2c0,0.6,0.4,1,1,1
	c0.6,0,1-0.4,1-1c0,0,0,0,0,0v-2c0-0.6-0.4-1-1-1C12,20.2,11.9,20.2,11.9,20.2z"/>
</svg>
